<?xml version="1.0" encoding="UTF-8" standalone="no"?>
<svg
   version="1.1"
   viewBox="-10 0 2058 2048"
   id="svg1"
   sodipodi:docname="off.svg"
   inkscape:version="1.4 (e7c3feb100, 2024-10-09)"
   xmlns:inkscape="http://www.inkscape.org/namespaces/inkscape"
   xmlns:sodipodi="http://sodipodi.sourceforge.net/DTD/sodipodi-0.dtd"
   xmlns="http://www.w3.org/2000/svg"
   xmlns:svg="http://www.w3.org/2000/svg">
  <defs
     id="defs1" />
  <sodipodi:namedview
     id="namedview1"
     pagecolor="#ffffff"
     bordercolor="#000000"
     borderopacity="0.25"
     inkscape:showpageshadow="2"
     inkscape:pageopacity="0.0"
     inkscape:pagecheckerboard="0"
     inkscape:deskcolor="#d1d1d1"
     inkscape:zoom="0.13793416"
     inkscape:cx="-2084.3278"
     inkscape:cy="1696.4616"
     inkscape:window-width="1920"
     inkscape:window-height="1058"
     inkscape:window-x="0"
     inkscape:window-y="0"
     inkscape:window-maximized="1"
     inkscape:current-layer="svg1" />
  <path
     fill="currentColor"
     d="M 1141.6977,130.40329 V 1143.52 q 0,56.5032 -30.0738,91.325 -30.0738,34.8218 -90.2214,34.8218 -58.7806,0 -88.17091,-34.8218 -29.39031,-34.8218 -29.39031,-91.325 V 130.40329 q 0,-59.13133 29.39031,-93.296097 29.39031,-34.1647668 88.17091,-34.1647668 60.1476,0 90.2214,34.1647668 30.0738,34.164767 30.0738,91.982057 z m 352.6836,285.1444 q 98.4234,59.13132 180.443,139.94413 82.0195,80.81282 140.1165,178.70802 58.0972,97.89519 90.2214,208.27367 32.1243,110.37849 32.1243,227.32709 0,122.2047 -32.8077,234.5543 -32.8078,112.3495 -92.272,210.2446 -59.4641,97.8952 -143.534,178.7081 -84.0699,80.8128 -185.9108,137.9731 -101.8408,57.1602 -218.7186,88.697 -116.8778,31.5367 -242.6409,31.5367 -127.13015,0 -244.0079,-31.5367 -116.87774,-31.5368 -218.71859,-88.697 -101.84084,-57.1603 -185.91079,-137.9731 -84.06997,-80.8129 -143.53408,-178.7081 -59.46412,-97.8951 -92.27191,-210.2446 -32.80779,-112.3496 -32.80779,-234.5543 0,-116.9486 32.1243,-227.32709 32.12429,-110.37848 90.22142,-208.27367 58.09712,-97.8952 140.11659,-178.70802 82.01947,-80.81281 180.44283,-139.94413 l 103.89133,164.25368 q -79.28548,45.99103 -142.85057,107.09341 -63.5651,61.10236 -108.6758,135.34503 -45.11071,74.24267 -69.71655,160.3116 -24.60585,86.06889 -24.60585,179.36499 0,143.2292 55.36315,266.7479 55.36314,123.5188 151.73602,214.8439 96.37288,91.3251 226.92053,143.2292 130.54766,51.9041 280.91666,51.9041 151.736,0 282.2836,-51.9041 130.5478,-51.9041 226.9206,-143.2292 96.3729,-91.3251 151.736,-214.8439 55.3632,-123.5187 55.3632,-266.7479 0,-93.2961 -24.6058,-179.36499 -24.6059,-86.06893 -69.7166,-160.3116 -45.1107,-74.24267 -108.6758,-135.34503 -63.5651,-61.10238 -142.8506,-107.09341 z"
     id="path1"
     style="fill:#ffffff;fill-opacity:1;stroke-width:1.34024" />
</svg>
